<?xml version="1.0" encoding="UTF-8"?>
<!DOCTYPE svg PUBLIC "-//W3C//DTD SVG 1.1//EN" "http://www.w3.org/Graphics/SVG/1.1/DTD/svg11.dtd">
<!-- Creator: CorelDRAW (OEM Version) -->
<svg xmlns="http://www.w3.org/2000/svg" xml:space="preserve" width="296.333mm" height="296.333mm" version="1.1" style="shape-rendering:geometricPrecision; text-rendering:geometricPrecision; image-rendering:optimizeQuality; fill-rule:evenodd; clip-rule:evenodd"
viewBox="0 0 29633.32 29633.32"
 xmlns:xlink="http://www.w3.org/1999/xlink"
 xmlns:xodm="http://www.corel.com/coreldraw/odm/2003">
 <defs>
  <style type="text/css">
   <![CDATA[
    .fil1 {fill:#009846}
    .fil6 {fill:#010205}
    .fil0 {fill:#11262F}
    .fil3 {fill:#122631}
    .fil4 {fill:#122832}
    .fil5 {fill:#FDFDFC}
    .fil2 {fill:#FEFBFB}
   ]]>
  </style>
 </defs>
 <g id="Layer_x0020_1">
  <metadata id="CorelCorpID_0Corel-Layer"/>
  <g id="_1935565688096">
   <path class="fil0" d="M7090.41 14691.48c-209.38,-1274.61 1428.98,-1417.54 1579.31,-388.17 185.35,1269.12 -1420.29,1356.16 -1579.31,388.17zm-565.51 -35.28c207.87,1704.08 2917.32,1496.54 2705.01,-350.02 -191.63,-1666.75 -2930.5,-1498.47 -2705.01,350.02z"/>
   <path class="fil0" d="M10384.83 14447.16l2.86 -790.11c394.97,14.85 925.28,-63.86 917.01,397.82 -8.1,452.32 -527.88,380.96 -919.87,392.29zm932.97 380.45c263.94,-81.22 441.76,-247.5 512.21,-539.5 75.02,-310.95 -20.58,-647.15 -188.02,-807.14 -408.36,-390.2 -1139.36,-262.91 -1787.82,-280.55l2.84 2582.06 531.26 -9.44 -3.46 -855.8 364.33 6.54c179.48,240.43 399.22,599.89 548.59,856.44l630.23 8.23c-86.46,-259.46 -469.69,-683.3 -610.16,-960.84z"/>
   <path class="fil1" d="M26076.05 13252.14l-413.58 -18.86c10.24,411.57 1.5,833.75 1.82,1246.53 0.27,348.96 35.89,945.51 -24.84,1252.54l455.35 -1.53c-50.14,-224.55 -28.87,-1321.32 -11.51,-1603.79 -21.97,15.31 -16.08,-7.34 43.66,8.57l958.12 1188.34c118.78,158.75 213.51,253.81 309.71,421.77 162.05,-40.07 295.36,-23.59 463.91,-3.92 -88.64,-469.92 37.79,-1872.32 -27.66,-2491.18l-395.68 -38.5c-73.41,74.66 -56.08,-59.44 -52.44,385.57l3.11 1258.04c-148.71,-137.59 -518.06,-651.96 -661.81,-827.9 -114.93,-140.66 -202.29,-264.13 -306.13,-400.73 -66.46,-87.42 -92.04,-112.95 -156.71,-194.43 -78.43,-98.8 -74.85,-105.7 -185.32,-180.52z"/>
   <path class="fil0" d="M13703.08 13861.75l363.9 950.31 -389.77 -4.57 -105.85 1.04 -206 4.15 337.72 -950.93zm-534.24 1419.82l1064.81 4.25 191.04 493.95 561.45 6.51c-27,-175.76 -862.06,-2186.46 -985.5,-2585.98l-583.61 -1.23c-107.98,399.23 -343.8,892.97 -497.92,1300.01l-484.32 1284.52 562.82 -11.2 171.23 -490.83z"/>
   <path class="fil1" d="M15372.21 15397.03c469.28,623.69 1644.22,530.34 1904.75,1.25 99.97,-203.02 102.96,-544.88 -15.56,-726.69 -285.22,-437.55 -904.6,-390.16 -1177.61,-623.27 -231.06,-197.29 -4.4,-457.14 307.82,-444.59 376.8,15.16 413.16,187.34 606.2,277.29 87.03,-136.17 212.82,-233.56 280.52,-355.28 -285.83,-208.29 -403.19,-389.22 -953,-374.52 -428.88,11.47 -728.56,177.2 -838.79,496.07 -348.4,1007.82 1160.14,1036.15 1288.75,1287.71 49.03,351.87 -151.85,444.56 -480.45,414.01 -189.83,-17.64 -349.2,-105.37 -484.72,-212.89l-142.42 -97.45c-91.41,123.52 -229.15,226.93 -295.49,358.36z"/>
   <polygon class="fil1" points="21157.54,15781.26 21719.73,15782.18 22711.02,13200.38 22153.82,13213.82 21433.97,15110.21 20737.44,13203.11 20158.48,13197.69 "/>
   <path class="fil1" d="M23796.38 15343.03l-4.4 -633.43c-33.05,-66.04 47.89,-38.31 146.9,-39.5 94.48,-1.14 191.74,1.64 286.37,2.29 185.88,1.29 366.06,-12.4 536.39,18.91l10.1 -382.75c-129.79,28.7 -1066.61,54.32 -980.37,-21.21l-2.45 -630.54 967.73 5.96c286.95,1.7 211.4,4.26 240.51,-64.72l-61.74 -355.6 -1641.6 4.36c20.5,462.06 59.67,2110.4 -18.02,2494.58l1721.8 -15.45 -25.94 -377.85c-71.55,11.29 -1211.07,47.7 -1175.28,-5.05z"/>
   <path class="fil1" d="M18568.34 14270.08c-70.61,-68.06 -62.77,95.53 -55.41,-107.77l-6.37 -518.97 -24.91 129.09c-2.25,35.98 3.36,136.37 4.71,178.53 4.49,139.85 21.2,204.9 -34.44,323.38 1.92,-878.51 -172.39,-645.84 1233.91,-667.31l-21.56 -349.58 -1633.23 -10.58c-3.05,455.39 55.75,2181.39 -24.48,2470.93l1702.97 8.89 -17.69 -375.16c-170.44,16.87 -1121.79,59.98 -1206.09,-37.45 -55.27,-63.88 -58.47,-505.93 1.62,-585.46 68.47,-82.65 289.8,-53.23 446.14,-53.13 190.17,0.13 375.06,-4.4 564.34,12.32l-14.1 -366.94 -938.22 4.7c-44.05,-62.09 -52.87,61.61 -7.11,-16.21 2.19,-3.71 22.22,-30.41 29.92,-39.28z"/>
   <path class="fil2" d="M7090.41 14691.48c159.02,967.99 1764.66,880.95 1579.31,-388.17 -150.33,-1029.37 -1788.69,-886.44 -1579.31,388.17z"/>
   <path class="fil3" d="M2775.16 14785.79l1003.3 7.41 -0.46 -488.35 -996.82 1.25 -1.07 -649.4 1087.75 0.48c109.53,-20.45 40.19,14.19 105.49,-47.08l-40.37 15.73 -4.1 -382.42 -1621.7 -3.4 -21.65 2498.86 455.36 -37.23c-14.67,-82.54 -55.66,-787.65 34.27,-915.85z"/>
   <path class="fil4" d="M5069.3 15322.16c-76.67,-147.36 -39.74,-1781.9 -22.17,-2082.15l-446.04 -3.74 -14.61 2491.25 1582.08 2.47 -4.73 -368.75 -988.8 -0.2c-233.47,-32.28 146.12,38.23 -57.69,-14.37l-48.04 -24.51z"/>
   <path class="fil2" d="M10384.83 14447.16c391.99,-11.33 911.77,60.03 919.87,-392.29 8.27,-461.68 -522.04,-382.97 -917.01,-397.82l-2.86 790.11z"/>
   <path class="fil1" d="M18568.34 14270.08c-7.7,8.87 -27.73,35.57 -29.92,39.28 -45.76,77.82 -36.94,-45.88 7.11,16.21l938.22 -4.7 14.1 366.94c-189.28,-16.72 -374.17,-12.19 -564.34,-12.32 -156.34,-0.1 -377.67,-29.52 -446.14,53.13 -60.09,79.53 -56.89,521.58 -1.62,585.46 84.3,97.43 1035.65,54.32 1206.09,37.45l17.69 375.16 -1702.97 -8.89c80.23,-289.54 21.43,-2015.54 24.48,-2470.93l1633.23 10.58 21.56 349.58c-1406.3,21.47 -1231.99,-211.2 -1233.91,667.31 55.64,-118.48 38.93,-183.53 34.44,-323.38 -1.35,-42.16 -6.96,-142.55 -4.71,-178.53l24.91 -129.09 1203.78 17.64 5.56 -453.45 -1735.65 -4.2 4.39 2573.61 1758.73 3.58 2.41 -458.31 -1237.58 2 -2.47 -598.04 1028.23 1.57 -2.03 -457.69 -963.59 0.03z"/>
   <path class="fil1" d="M23796.38 15343.03c-35.79,52.75 1103.73,16.34 1175.28,5.05l25.94 377.85 -1721.8 15.45c77.69,-384.18 38.52,-2032.52 18.02,-2494.58l1641.6 -4.36 61.74 355.6 3.88 -391.21 -1749.79 7.56 2.13 2561.91 1770.56 -5.86 6.98 -441.25c-254.51,-18.62 -1010.6,-32.54 -1234.54,13.84z"/>
   <polygon class="fil5" points="13365.36,14812.68 13571.36,14808.53 13677.21,14807.49 14066.98,14812.06 13703.08,13861.75 "/>
   <path class="fil6" d="M5069.3 15322.16l48.04 24.51c203.81,52.6 -175.78,-17.91 57.69,14.37l988.8 0.2 4.73 368.75 -1582.08 -2.47 14.61 -2491.25 446.04 3.74c-17.57,300.25 -54.5,1934.79 22.17,2082.15zm0 0l13.63 -2114.96 -518.37 -3.45 4.49 2572.67 1631.53 6.15 3.73 -460.2 -1135.01 -0.21z"/>
   <path class="fil6" d="M2775.16 14785.79c-89.93,128.2 -48.94,833.31 -34.27,915.85l-455.36 37.23 21.65 -2498.86 1621.7 3.4 4.1 382.42 40.37 -15.73 2.41 -402.19 -1722.28 1.89 4.26 2565.91 517.68 4.52 -0.26 -994.44z"/>
   <path class="fil1" d="M26126.95 14135.6c-59.74,-15.91 -65.63,6.74 -43.66,-8.57 -17.36,282.47 -38.63,1379.24 11.51,1603.79l-455.35 1.53c60.73,-307.03 25.11,-903.58 24.84,-1252.54 -0.32,-412.78 8.42,-834.96 -1.82,-1246.53l413.58 18.86c-64.06,-74.05 -248.05,-43.19 -457.25,-47.63l5.56 2572.94 505.47 3.05 -2.88 -1644.9z"/>
   <path class="fil1" d="M27394.78 15745.71c162.31,36.64 284.13,29.24 497.69,33.41l1.9 -2571.91 -459.02 4.9 395.68 38.5c65.45,618.86 -60.98,2021.26 27.66,2491.18 -168.55,-19.67 -301.86,-36.15 -463.91,3.92z"/>
   <path class="fil1" d="M23791.98 14709.6l1028.48 15.02 -1.99 -455.09 -1027.1 17.81c-86.24,75.53 850.58,49.91 980.37,21.21l-10.1 382.75c-170.33,-31.31 -350.51,-17.62 -536.39,-18.91 -94.63,-0.65 -191.89,-3.43 -286.37,-2.29 -99.01,1.19 -179.95,-26.54 -146.9,39.5z"/>
  </g>
 </g>
</svg>
